<svg width="56" height="24" viewBox="0 0 56 24" fill="none" xmlns="http://www.w3.org/2000/svg">
<path d="M42.7622 24.0272H41.3718C36.7461 24.0272 32.3075 22.2173 29.0454 19.0172L28.5641 18.545L25.0346 15.0826L21.9062 12.0136L17.6815 7.86917C17.6013 7.76424 17.4944 7.68555 17.4141 7.60686C16.3179 6.58387 14.8205 5.98057 13.1895 5.98057C9.79368 5.98057 7.03961 8.68231 7.03961 12.0398H7.01287L7.03961 12.0661C7.03961 14.794 8.9113 17.1023 11.4515 17.8368C12.7616 18.2302 13.9916 18.8598 14.9542 19.8303L18.2163 23.0304L19.2858 24.0797H13.1895C10.89 24.0797 8.75087 23.4501 6.90592 22.3747C3.32296 20.25 0.943237 16.3941 0.943237 12.0136C0.943237 10.2561 1.31758 8.60362 2.01278 7.10848C3.51013 3.82966 6.45136 1.33776 10.0611 0.393458C11.0504 0.131153 12.1199 0 13.1895 0C16.4783 0 19.4463 1.25907 21.6388 3.30505L22.0666 3.72474L28.2165 9.75777L42.7622 24.0272Z" fill="#7B66FF"/>
<path d="M55.57 22.3485H47.602C47.2544 22.3485 46.9335 22.2174 46.7196 21.9813L36.7729 12.2235C36.6927 12.1448 36.7461 12.0137 36.8531 12.0137H39.2596C43.0832 12.0137 46.7463 13.5088 49.4469 16.1581L55.6235 22.2174C55.677 22.2698 55.6235 22.3485 55.57 22.3485Z" fill="#7B66FF"/>
</svg>
